<svg xmlns="http://www.w3.org/2000/svg" viewBox="0 0 190.78 60.83"><title>logo</title><path d="M42.4,17.78l-31.89,14L42.4,45.77V58L0,37.59V26L42.4,5.46V17.78Z" transform="translate(0 -1.24)" style="fill:#34495e"/><path d="M148.38,17.78V5.46L190.78,26V37.59L148.38,58V45.77l31.89-13.95Z" transform="translate(0 -1.24)" style="fill:#34495e"/><path d="M69.34,24.07a15.46,15.46,0,0,1,4.82-5.35,11.11,11.11,0,0,1,6.2-1.78q7.64,0,11.76,5.83T96.24,39.5q0,10.75-4.07,16.66a13.09,13.09,0,0,1-11.44,5.91A12.07,12.07,0,0,1,74,60.18a13.25,13.25,0,0,1-4.64-5.6V61H58.13V1.24H69.34V24.07ZM85,39.58q0-6.22-2.07-9.75A6.37,6.37,0,0,0,77.2,26.3a6.45,6.45,0,0,0-5.76,3.53q-2.11,3.53-2.11,9.75t2.11,9.75a6.45,6.45,0,0,0,5.76,3.53,6.37,6.37,0,0,0,5.72-3.53Q85,45.79,85,39.58Z" transform="translate(0 -1.24)" style="fill:#25ae5f"/><path d="M134.65,58.76a23.61,23.61,0,0,1-6.1,2.48,28.6,28.6,0,0,1-7,.82q-9.94,0-15.54-6t-5.6-16.58q0-10.63,5.64-16.64t15.58-6a27.19,27.19,0,0,1,6.66.81,28.47,28.47,0,0,1,6.39,2.49V30.44a18.38,18.38,0,0,0-5.39-3.24,16.77,16.77,0,0,0-6.08-1.13q-5.49,0-8.44,3.49t-3,9.94q0,6.45,3,9.9t8.44,3.45a16.82,16.82,0,0,0,6.1-1.09,17.85,17.85,0,0,0,5.37-3.32V58.76Z" transform="translate(0 -1.24)" style="fill:#2981bb"/></svg>