<svg xmlns="http://www.w3.org/2000/svg" viewBox="0 0 178.78 60.83"><title>logo</title><path d="M48,17.57l-31.89,14L48,45.56V57.84L5.61,37.38V25.75L48,5.25V17.57Z" transform="translate(-5.61 -1.03)" style="fill:#34495e"/><path d="M142,17.57V5.25l42.4,20.5V37.38L142,57.84V45.56l31.89-13.95Z" transform="translate(-5.61 -1.03)" style="fill:#34495e"/><path d="M68.95,23.86a15.46,15.46,0,0,1,4.82-5.35A11.11,11.11,0,0,1,80,16.72q7.64,0,11.76,5.83t4.13,16.73q0,10.75-4.07,16.66a13.09,13.09,0,0,1-11.44,5.91A12.07,12.07,0,0,1,73.59,60a13.25,13.25,0,0,1-4.64-5.6v6.37H57.74V1H68.95V23.86ZM84.6,39.37q0-6.22-2.07-9.75a6.37,6.37,0,0,0-5.72-3.53,6.45,6.45,0,0,0-5.76,3.53q-2.11,3.53-2.11,9.75t2.11,9.75a6.45,6.45,0,0,0,5.76,3.53,6.37,6.37,0,0,0,5.72-3.53Q84.6,45.58,84.6,39.37Z" transform="translate(-5.61 -1.03)" style="fill:#25ae5f"/><path d="M132.26,58.55a23.61,23.61,0,0,1-6.1,2.48,28.6,28.6,0,0,1-7,.82q-9.94,0-15.54-6T98,39.29q0-10.63,5.64-16.64t15.58-6a27.19,27.19,0,0,1,6.66.81,28.47,28.47,0,0,1,6.39,2.49V30.23A18.38,18.38,0,0,0,126.87,27a16.77,16.77,0,0,0-6.08-1.13q-5.49,0-8.44,3.49t-3,9.94q0,6.45,3,9.9t8.44,3.45a16.82,16.82,0,0,0,6.1-1.09,17.85,17.85,0,0,0,5.37-3.32V58.55Z" transform="translate(-5.61 -1.03)" style="fill:#2981bb"/></svg>