<svg id="970b3523-983c-4ab0-a937-3777fe756450" data-name="Layer 1" xmlns="http://www.w3.org/2000/svg" viewBox="0 0 190.78 63.58"><title>hb logo</title><path d="M42.4,17.78l-31.89,14L42.4,45.77V58L0,37.59V26L42.4,5.46V17.78Z" style="fill:#34495e"/><path d="M91.89,33.25V62.42H80.22V35.06q0-4.85-1.38-6.94A5,5,0,0,0,74.32,26a5.65,5.65,0,0,0-5,2.83Q67.5,31.69,67.5,36.7V62.42H55.83V0H67.5V24.23a10.92,10.92,0,0,1,4.25-5.78,12.6,12.6,0,0,1,7.26-2q6.38,0,9.63,4.23T91.89,33.25Z" style="fill:#2981bb"/><path d="M109.12,23.87a16.17,16.17,0,0,1,5-5.6,11.62,11.62,0,0,1,6.48-1.87q8,0,12.29,6.1T137.24,40q0,11.23-4.25,17.41a13.68,13.68,0,0,1-12,6.18,12.62,12.62,0,0,1-7.06-2,13.84,13.84,0,0,1-4.85-5.86v6.66H97.41V0h11.71V23.87Zm16.37,16.21q0-6.5-2.17-10.19a6.65,6.65,0,0,0-6-3.69,6.74,6.74,0,0,0-6,3.69q-2.21,3.69-2.21,10.19t2.21,10.19a6.74,6.74,0,0,0,6,3.69,6.65,6.65,0,0,0,6-3.69Q125.49,46.57,125.49,40.07Z" style="fill:#25ae5f"/><path d="M148.38,17.78V5.46L190.78,26V37.59L148.38,58V45.77l31.89-13.95Z" style="fill:#34495e"/></svg>